<?xml version="1.0" encoding="UTF-8"?>
<svg xmlns="http://www.w3.org/2000/svg" viewBox="0 0 32 32">
    <path style="text-indent:0;text-align:start;line-height:normal;text-transform:none;block-progression:tb;-inkscape-font-specification:Bitstream Vera Sans" d="M 13 4 C 11.087897 4 9.5428547 5.3852036 9.15625 7.1875 C 6.8224622 7.6065535 5 9.5505806 5 12 C 5 12.244983 5.0285155 12.463966 5.0625 12.6875 C 4.4185585 13.63519 4 14.754673 4 16 C 4 17.798484 4.8942266 19.310398 6.15625 20.40625 C 6.0653863 20.762721 6 21.11593 6 21.5 C 6 23.973438 8.026562 26 10.5 26 C 10.52554 26 10.53777 26.00059 10.5625 26 C 11.14465 27.127843 12.152409 28 13.5 28 C 14.475944 28 15.362842 27.590253 16 26.9375 C 16.637158 27.590253 17.524056 28 18.5 28 C 19.847591 28 20.85535 27.127843 21.4375 26 C 21.46223 26.00059 21.47446 26 21.5 26 C 23.845765 26 25.774328 24.173021 25.96875 21.875 L 26 21.875 C 26 21.810981 25.971902 21.750808 25.96875 21.6875 C 25.971468 21.623751 26 21.564382 26 21.5 C 26 21.129387 25.866318 20.811036 25.78125 20.46875 C 27.07849 19.368764 28 17.829998 28 16 C 28 14.754673 27.581442 13.63519 26.9375 12.6875 C 26.971484 12.463966 27 12.244983 27 12 C 27 9.5505806 25.177538 7.6065535 22.84375 7.1875 C 22.457145 5.3852036 20.912103 4 19 4 C 17.79939 4 16.735278 4.5595697 16 5.40625 C 15.264722 4.5595697 14.20061 4 13 4 z M 13 6 C 14.116666 6 15 6.8833339 15 8 L 15 10 C 15 11.668484 13.668484 13 12 13 L 12 15 C 13.132485 15 14.159221 14.609952 15 13.96875 L 15 24.5 C 15 25.340812 14.340812 26 13.5 26 C 12.753542 26 12.15735 25.482606 12.03125 24.78125 L 11.84375 23.8125 L 10.875 23.96875 C 10.699592 23.996188 10.590743 24 10.5 24 C 9.107438 24 8 22.892562 8 21.5 C 8 21.190918 8.0507621 20.902158 8.15625 20.625 C 8.1644579 20.602693 8.1786765 20.584486 8.1875 20.5625 C 8.4963216 19.793002 9.1692869 19.23093 10 19.0625 L 9.59375 17.09375 C 8.5507155 17.305229 7.6430282 17.860338 7 18.65625 C 6.3718083 17.9522 6 17.023085 6 16 C 6 15.060678 6.319373 14.226801 6.875 13.53125 L 7.1875 13.15625 L 7.09375 12.65625 C 7.0401751 12.422469 7 12.216228 7 12 C 7 10.331516 8.3315161 9 10 9 L 11 9 L 11 8 C 11 6.8833339 11.883334 6 13 6 z M 19 6 C 20.116666 6 21 6.8833339 21 8 L 21 9 L 22 9 C 23.668484 9 25 10.331516 25 12 C 25 12.216228 24.95982 12.422469 24.90625 12.65625 L 24.8125 13.15625 L 25.125 13.53125 C 25.680627 14.226801 26 15.060678 26 16 C 26 17.19862 25.486783 18.268022 24.65625 19 C 23.971319 18.394089 23.100135 18 22.125 18 C 21.18047 18 20.328167 18.336874 19.65625 18.90625 L 20.9375 20.4375 C 21.261583 20.162876 21.66153 20 22.125 20 C 23.09042 20 23.858693 20.722257 23.96875 21.65625 C 23.886103 22.971091 22.837663 24 21.5 24 C 21.40926 24 21.300408 23.9962 21.125 23.96875 L 20.15625 23.8125 L 19.96875 24.78125 C 19.84265 25.482606 19.246458 26 18.5 26 C 17.659188 26 17 25.340812 17 24.5 L 17 13.96875 C 17.840779 14.609952 18.867515 15 20 15 L 20 13 C 18.331516 13 17 11.668484 17 10 L 17 8 C 17 6.8833339 17.883334 6 19 6 z" overflow="visible" font-family="Bitstream Vera Sans"/>
</svg>